<?xml version="1.0" encoding="utf-8"?>
<!-- Generator: Adobe Illustrator 16.0.4, SVG Export Plug-In . SVG Version: 6.00 Build 0)  -->
<!DOCTYPE svg PUBLIC "-//W3C//DTD SVG 1.1//EN" "http://www.w3.org/Graphics/SVG/1.1/DTD/svg11.dtd">
<svg version="1.1" id="logo_1_" xmlns="http://www.w3.org/2000/svg" xmlns:xlink="http://www.w3.org/1999/xlink" x="0px" y="0px"
	 width="435px" height="150px" viewBox="0 0 435 150" enable-background="new 0 0 435 150" xml:space="preserve">
<symbol  id="name_color" viewBox="-315 -68.482 435 142.5">
	<path fill="#003BEF" d="M-239.144,72.013c-0.63,1.232-1.895,2.005-3.275,2.005c-1.381,0-2.645-0.773-3.275-2.005l-68.9-135.118
		c-0.586-1.146-0.535-2.513,0.133-3.61c0.668-1.098,1.86-1.768,3.142-1.768h137.799c0.017,0,0.032,0.001,0.049,0
		c2.034,0,3.682,1.652,3.682,3.691c0,0.811-0.262,1.562-0.704,2.171L-239.144,72.013z M-242.419,62.242l23.639-46.688l-84.02-71.786
		L-242.419,62.242z M-297.147-61.1l81.821,69.906l35.779-69.906H-297.147z M-85.413,73.518h-62.276
		c-2.034,0-3.682-1.652-3.682-3.691V-64.791c0-2.04,1.647-3.691,3.682-3.691h62.276c2.033,0,3.681,1.652,3.681,3.691v21.113
		c30.547,1.912,54.814,27.438,54.814,58.541C-26.918,47.205-53.159,73.518-85.413,73.518z M-89.095-61.1h-54.914V63.357
		l54.914-103.641V-61.1z M-82.879-36.282l-54.264,102.417h51.73c28.194,0,51.132-23.001,51.132-51.272
		C-34.281-12.55-55.865-34.942-82.879-36.282z M50.082,73.518h-56.57c-2.033,0-3.681-1.652-3.681-3.691V-64.791
		c0-2.04,1.647-3.691,3.681-3.691h56.57C88.635-68.482,120-36.592,120,2.608C120,41.708,88.635,73.518,50.082,73.518z
		 M-2.806,66.135h52.888c16.225,0,31.023-6.308,42.15-16.631L-2.806-57.464V66.135z M50.082-61.1H3.824L97.342,44.156
		c9.518-11.147,15.296-25.67,15.296-41.548C112.638-32.521,84.575-61.1,50.082-61.1z"/>
</symbol>
<use xlink:href="#name_color"  width="435" height="142.5" id="XMLID_5_" x="-315" y="-68.482" transform="matrix(1 0 0 -1 315 81.5176)" overflow="visible"/>
</svg>
